<?xml version="1.0" encoding="UTF-8"?><svg id="_レイヤー_1" xmlns="http://www.w3.org/2000/svg" width="48" height="48" viewBox="0 0 48 48"><defs><style>.cls-1{fill:#fff;}.cls-2{fill:#383838;}</style></defs><path class="cls-1" d="M8.21,43.89V14.53c-1.8-.97-2.72-2.15-2.72-3.49,0-4.35,9.78-6.33,18.87-6.33s18.87,1.98,18.87,6.33c0,1.22-.75,2.3-2.24,3.22v29.64H8.21Z"/><path class="cls-2" d="M24.37,6c9.71,0,17.58,2.25,17.58,5.03,0,.89-.81,1.73-2.24,2.46v29.1H9.51V13.72c-1.72-.78-2.72-1.7-2.72-2.69,0-2.78,7.87-5.03,17.58-5.03M24.37,3.41c-2.06,0-20.17.21-20.17,7.63,0,1.19.51,2.81,2.72,4.23v29.92h35.39V14.94c1.81-1.34,2.24-2.82,2.24-3.9,0-7.41-18.11-7.63-20.17-7.63h0Z"/></svg>