<?xml version="1.0" encoding="UTF-8"?><svg id="_レイヤー_2" xmlns="http://www.w3.org/2000/svg" width="113" height="40" viewBox="0 0 113 40"><defs><style>.cls-1,.cls-2{fill:none;}.cls-2{stroke:#383838;stroke-miterlimit:10;stroke-width:.85px;}.cls-3{opacity:.1;}.cls-4{fill:#383838;}</style></defs><g id="_レイヤー_1-2"><g class="cls-3"><rect class="cls-4" x="71" width="42" height="40"/></g><line class="cls-2" x1="12" y1="33.5" x2="100" y2="33.5"/><line class="cls-2" x1="85" y1="22.5" x2="99.08" y2="22.5"/><polygon class="cls-4" points="96.26 25.98 95.68 25.36 98.75 22.5 95.68 19.65 96.26 19.02 100 22.5 96.26 25.98"/><path d="M12.32,26.79v-11.73h1.78l2.24,6.27c.15.4.29.8.43,1.22.14.42.28.83.42,1.23h.06c.15-.41.29-.82.42-1.23.13-.42.26-.82.39-1.22l2.24-6.27h1.78v11.73h-1.38v-6.5c0-.34.01-.71.03-1.11.02-.4.05-.81.08-1.22.03-.41.06-.79.08-1.13h-.06l-.94,2.67-2.21,6.1h-.99l-2.22-6.1-.94-2.67h-.06c.04.34.08.72.1,1.13.03.41.05.82.06,1.22s.02.77.02,1.11v6.5h-1.33Z"/><path d="M29.35,27c-.7,0-1.37-.18-1.98-.54-.62-.36-1.11-.87-1.48-1.55-.37-.68-.55-1.5-.55-2.46s.18-1.79.55-2.47c.37-.68.86-1.2,1.48-1.56.62-.36,1.28-.54,1.98-.54.53,0,1.04.1,1.53.3s.91.5,1.29.9c.37.39.67.87.88,1.44s.32,1.21.32,1.94c0,.96-.19,1.78-.56,2.46-.37.68-.86,1.19-1.47,1.55-.61.36-1.27.54-1.98.54ZM29.35,25.78c.5,0,.94-.14,1.32-.42.38-.28.67-.67.89-1.17.21-.5.32-1.08.32-1.74s-.11-1.26-.32-1.76c-.21-.5-.51-.89-.89-1.17-.38-.28-.82-.42-1.32-.42s-.94.14-1.32.42c-.38.28-.67.67-.88,1.17-.21.5-.31,1.09-.31,1.76s.1,1.24.31,1.74.5.89.88,1.17c.38.28.82.42,1.32.42Z"/><path d="M36.47,26.79v-8.69h1.2l.14,1.58h.03c.3-.55.66-.99,1.1-1.32.43-.33.89-.49,1.37-.49.2,0,.38.01.52.04.14.03.28.08.41.15l-.27,1.26c-.15-.04-.28-.08-.4-.1-.12-.03-.27-.04-.45-.04-.35,0-.73.15-1.14.46s-.75.82-1.04,1.56v5.58h-1.47Z"/><path d="M46.99,27c-.78,0-1.48-.18-2.11-.54-.63-.36-1.13-.88-1.5-1.56-.37-.68-.55-1.49-.55-2.44,0-.71.11-1.35.32-1.91s.5-1.04.87-1.44.79-.7,1.26-.91.95-.31,1.44-.31c.75,0,1.38.17,1.89.5.51.33.9.8,1.18,1.42s.41,1.34.41,2.17c0,.16,0,.31-.02.45s-.03.27-.05.38h-5.86c.03.62.17,1.15.42,1.61.25.45.58.81,1,1.06s.9.38,1.46.38c.43,0,.81-.06,1.16-.18s.69-.29,1.02-.5l.51.98c-.37.25-.79.45-1.26.62-.47.17-1,.26-1.58.26ZM44.26,21.75h4.66c0-.87-.19-1.54-.57-2.01-.38-.46-.91-.7-1.59-.7-.41,0-.79.11-1.14.32s-.66.52-.9.91c-.24.4-.39.89-.46,1.47Z"/><rect class="cls-1" width="113" height="40"/></g></svg>